<svg preserveAspectRatio="none" width="100%" height="100%" overflow="visible" style="display: block;" viewBox="0 0 28 28" fill="none" xmlns="http://www.w3.org/2000/svg">
<g id="figma logo" clip-path="url(#clip0_0_9)">
<g id="Vector">
</g>
<path id="Vector_2" d="M9.88237 26.3531C12.1553 26.3531 14 24.5084 14 22.2354V18.1178H9.88237C7.60943 18.1178 5.76472 19.9625 5.76472 22.2354C5.76472 24.5084 7.60943 26.3531 9.88237 26.3531Z" fill="var(--fill-0, #0ACF83)"/>
<path id="Vector_3" d="M5.76472 13.9998C5.76472 11.7269 7.60943 9.8822 9.88237 9.8822H14V18.1175H9.88237C7.60943 18.1175 5.76472 16.2728 5.76472 13.9998Z" fill="var(--fill-0, #A259FF)"/>
<path id="Vector_4" d="M5.76472 5.76511C5.76472 3.49217 7.60943 1.64746 9.88237 1.64746H14V9.88276H9.88237C7.60943 9.88276 5.76472 8.03805 5.76472 5.76511Z" fill="var(--fill-0, #F24E1E)"/>
<path id="Vector_5" d="M14 1.64746H18.1176C20.3906 1.64746 22.2353 3.49217 22.2353 5.76511C22.2353 8.03805 20.3906 9.88276 18.1176 9.88276H14V1.64746Z" fill="var(--fill-0, #FF7262)"/>
<path id="Vector_6" d="M22.2353 13.9998C22.2353 16.2728 20.3906 18.1175 18.1176 18.1175C15.8447 18.1175 14 16.2728 14 13.9998C14 11.7269 15.8447 9.8822 18.1176 9.8822C20.3906 9.8822 22.2353 11.7269 22.2353 13.9998Z" fill="var(--fill-0, #1ABCFE)"/>
</g>
<defs>
<clipPath id="clip0_0_9">
<rect width="28" height="28" fill="white"/>
</clipPath>
</defs>
</svg>
